<?xml version="1.0" encoding="UTF-8"?>
<svg xmlns="http://www.w3.org/2000/svg" xmlns:xlink="http://www.w3.org/1999/xlink" width="10pt" height="9pt" viewBox="0 0 10 9" version="1.1">
<g id="surface1">
<path style=" stroke:none;fill-rule:nonzero;fill:rgb(0%,0%,0%);fill-opacity:1;" d="M 4.867188 2.605469 L 1.667969 5.273438 L 1.667969 8.15625 C 1.667969 8.3125 1.792969 8.4375 1.945312 8.4375 L 3.890625 8.433594 C 4.042969 8.429688 4.167969 8.304688 4.167969 8.152344 L 4.167969 6.46875 C 4.167969 6.3125 4.289062 6.1875 4.445312 6.1875 L 5.554688 6.1875 C 5.707031 6.1875 5.832031 6.3125 5.832031 6.46875 L 5.832031 8.148438 C 5.832031 8.226562 5.863281 8.296875 5.914062 8.347656 C 5.964844 8.402344 6.035156 8.433594 6.109375 8.433594 L 8.054688 8.4375 C 8.207031 8.4375 8.332031 8.3125 8.332031 8.15625 L 8.332031 5.273438 L 5.132812 2.605469 C 5.054688 2.542969 4.945312 2.542969 4.867188 2.605469 Z M 9.921875 4.421875 L 8.472656 3.210938 L 8.472656 0.773438 C 8.472656 0.65625 8.378906 0.5625 8.265625 0.5625 L 7.292969 0.5625 C 7.175781 0.5625 7.082031 0.65625 7.082031 0.773438 L 7.082031 2.050781 L 5.527344 0.757812 C 5.222656 0.5 4.777344 0.5 4.46875 0.757812 L 0.0742188 4.421875 C -0.0117188 4.496094 -0.0273438 4.628906 0.046875 4.71875 L 0.492188 5.261719 C 0.527344 5.304688 0.574219 5.332031 0.632812 5.339844 C 0.6875 5.34375 0.742188 5.328125 0.785156 5.289062 L 4.867188 1.886719 C 4.945312 1.820312 5.054688 1.820312 5.132812 1.886719 L 9.21875 5.289062 C 9.304688 5.367188 9.4375 5.351562 9.511719 5.261719 L 9.953125 4.71875 C 9.988281 4.675781 10.003906 4.617188 10 4.5625 C 9.992188 4.507812 9.964844 4.457031 9.921875 4.421875 Z M 9.921875 4.421875 "/>
</g>
</svg>
