<?xml version="1.0" encoding="UTF-8"?>
<svg xmlns="http://www.w3.org/2000/svg" xmlns:xlink="http://www.w3.org/1999/xlink" width="10pt" height="11pt" viewBox="0 0 10 11" version="1.1">
<g id="surface1">
<path style=" stroke:none;fill-rule:nonzero;fill:rgb(0%,0%,0%);fill-opacity:1;" d="M 10 8.25 C 9.375 8.25 9.300781 7.5625 8.335938 7.5625 C 7.367188 7.5625 7.292969 8.25 6.667969 8.25 C 6.050781 8.25 5.964844 7.5625 5 7.5625 C 4.042969 7.5625 3.945312 8.25 3.335938 8.25 C 2.707031 8.25 2.640625 7.5625 1.667969 7.5625 C 0.695312 7.5625 0.628906 8.25 0 8.25 L 0 6.53125 C 0 5.960938 0.480469 5.5 1.070312 5.5 L 1.429688 5.5 L 1.429688 2.40625 L 2.855469 2.40625 L 2.855469 5.5 L 4.285156 5.5 L 4.285156 2.40625 L 5.714844 2.40625 L 5.714844 5.5 L 7.144531 5.5 L 7.144531 2.40625 L 8.570312 2.40625 L 8.570312 5.5 L 8.929688 5.5 C 9.519531 5.5 10 5.960938 10 6.53125 Z M 10 11 L 0 11 L 0 8.9375 C 0.96875 8.9375 1.042969 8.25 1.667969 8.25 C 2.292969 8.25 2.367188 8.9375 3.335938 8.9375 C 4.292969 8.9375 4.390625 8.25 5 8.25 C 5.628906 8.25 5.695312 8.9375 6.667969 8.9375 C 7.636719 8.9375 7.710938 8.25 8.335938 8.25 C 8.949219 8.25 9.035156 8.9375 10 8.9375 Z M 2.144531 2.0625 C 1.746094 2.0625 1.429688 1.757812 1.429688 1.375 C 1.429688 0.710938 2.144531 0.882812 2.144531 0 C 2.410156 0 2.855469 0.632812 2.855469 1.203125 C 2.855469 1.773438 2.539062 2.0625 2.144531 2.0625 Z M 5 2.0625 C 4.605469 2.0625 4.285156 1.757812 4.285156 1.375 C 4.285156 0.710938 5 0.882812 5 0 C 5.269531 0 5.714844 0.632812 5.714844 1.203125 C 5.714844 1.773438 5.394531 2.0625 5 2.0625 Z M 7.855469 2.0625 C 7.460938 2.0625 7.144531 1.757812 7.144531 1.375 C 7.144531 0.710938 7.855469 0.882812 7.855469 0 C 8.125 0 8.570312 0.632812 8.570312 1.203125 C 8.570312 1.773438 8.253906 2.0625 7.855469 2.0625 Z M 7.855469 2.0625 "/>
</g>
</svg>
