<?xml version="1.0" encoding="UTF-8"?>
<svg xmlns="http://www.w3.org/2000/svg" xmlns:xlink="http://www.w3.org/1999/xlink" width="10pt" height="8pt" viewBox="0 0 10 8" version="1.1">
<g id="surface1">
<path style=" stroke:none;fill-rule:nonzero;fill:rgb(0%,0%,0%);fill-opacity:1;" d="M 9.722656 2.394531 L 5.367188 1.054688 C 5.128906 0.980469 4.871094 0.980469 4.632812 1.054688 L 0.277344 2.394531 C -0.09375 2.507812 -0.09375 2.992188 0.277344 3.105469 L 1.035156 3.339844 C 0.867188 3.546875 0.765625 3.796875 0.757812 4.074219 C 0.605469 4.160156 0.5 4.3125 0.5 4.5 C 0.5 4.667969 0.589844 4.808594 0.714844 4.902344 L 0.316406 6.695312 C 0.28125 6.851562 0.402344 7 0.5625 7 L 1.4375 7 C 1.597656 7 1.71875 6.851562 1.683594 6.695312 L 1.285156 4.902344 C 1.410156 4.808594 1.5 4.667969 1.5 4.5 C 1.5 4.320312 1.398438 4.167969 1.253906 4.082031 C 1.265625 3.84375 1.386719 3.636719 1.578125 3.507812 L 4.632812 4.445312 C 4.777344 4.488281 5.046875 4.542969 5.367188 4.445312 L 9.722656 3.105469 C 10.09375 2.992188 10.09375 2.507812 9.722656 2.394531 Z M 5.511719 4.921875 C 5.066406 5.058594 4.6875 4.984375 4.488281 4.921875 L 2.222656 4.226562 L 2 6 C 2 6.550781 3.34375 7 5 7 C 6.65625 7 8 6.550781 8 6 L 7.777344 4.226562 Z M 5.511719 4.921875 "/>
</g>
</svg>
