<?xml version="1.0" encoding="UTF-8"?>
<svg xmlns="http://www.w3.org/2000/svg" xmlns:xlink="http://www.w3.org/1999/xlink" width="10pt" height="10pt" viewBox="0 0 10 10" version="1.1">
<g id="surface1">
<path style=" stroke:none;fill-rule:nonzero;fill:rgb(0%,0%,0%);fill-opacity:1;" d="M 3.4375 4.21875 L 6.5625 4.21875 C 6.734375 4.21875 6.875 4.078125 6.875 3.90625 L 6.875 3.59375 C 6.875 3.421875 6.734375 3.28125 6.5625 3.28125 L 3.4375 3.28125 C 3.265625 3.28125 3.125 3.421875 3.125 3.59375 L 3.125 3.90625 C 3.125 4.078125 3.265625 4.21875 3.4375 4.21875 Z M 3.125 5.78125 C 3.125 5.953125 3.265625 6.09375 3.4375 6.09375 L 6.5625 6.09375 C 6.734375 6.09375 6.875 5.953125 6.875 5.78125 L 6.875 5.46875 C 6.875 5.296875 6.734375 5.15625 6.5625 5.15625 L 3.4375 5.15625 C 3.265625 5.15625 3.125 5.296875 3.125 5.46875 Z M 5 8.148438 C 4.679688 8.148438 4.359375 8.046875 4.085938 7.851562 L 0 4.898438 L 0 9.0625 C 0 9.582031 0.417969 10 0.9375 10 L 9.0625 10 C 9.582031 10 10 9.582031 10 9.0625 L 10 4.898438 L 5.914062 7.851562 C 5.640625 8.046875 5.320312 8.148438 5 8.148438 Z M 9.640625 3.183594 C 9.46875 3.046875 9.304688 2.917969 9.0625 2.738281 L 9.0625 1.875 C 9.0625 1.355469 8.644531 0.9375 8.125 0.9375 L 6.609375 0.9375 C 6.550781 0.894531 6.496094 0.855469 6.433594 0.808594 C 6.105469 0.570312 5.453125 -0.0078125 5 0 C 4.546875 -0.0078125 3.894531 0.570312 3.566406 0.808594 C 3.503906 0.855469 3.449219 0.894531 3.390625 0.9375 L 1.875 0.9375 C 1.355469 0.9375 0.9375 1.355469 0.9375 1.875 L 0.9375 2.738281 C 0.695312 2.917969 0.53125 3.046875 0.359375 3.183594 C 0.132812 3.359375 0 3.632812 0 3.921875 L 0 4.128906 L 1.875 5.484375 L 1.875 1.875 L 8.125 1.875 L 8.125 5.484375 L 10 4.128906 L 10 3.921875 C 10 3.632812 9.867188 3.359375 9.640625 3.183594 Z M 9.640625 3.183594 "/>
</g>
</svg>
