<?xml version="1.0" encoding="UTF-8"?>
<svg xmlns="http://www.w3.org/2000/svg" xmlns:xlink="http://www.w3.org/1999/xlink" width="10pt" height="10pt" viewBox="0 0 10 10" version="1.1">
<g id="surface1">
<path style=" stroke:none;fill-rule:nonzero;fill:rgb(0%,0%,0%);fill-opacity:1;" d="M 9.84375 5 C 9.84375 2.324219 7.675781 0.15625 5 0.15625 C 2.324219 0.15625 0.15625 2.324219 0.15625 5 C 0.15625 7.417969 1.925781 9.421875 4.242188 9.785156 L 4.242188 6.398438 L 3.011719 6.398438 L 3.011719 5 L 4.242188 5 L 4.242188 3.933594 C 4.242188 2.71875 4.964844 2.046875 6.074219 2.046875 C 6.601562 2.046875 7.15625 2.144531 7.15625 2.144531 L 7.15625 3.335938 L 6.546875 3.335938 C 5.945312 3.335938 5.757812 3.707031 5.757812 4.089844 L 5.757812 5 L 7.101562 5 L 6.886719 6.398438 L 5.757812 6.398438 L 5.757812 9.785156 C 8.074219 9.421875 9.84375 7.417969 9.84375 5 Z M 9.84375 5 "/>
</g>
</svg>
