<?xml version="1.0" encoding="UTF-8"?>
<svg xmlns="http://www.w3.org/2000/svg" xmlns:xlink="http://www.w3.org/1999/xlink" width="10pt" height="8pt" viewBox="0 0 10 8" version="1.1">
<g id="surface1">
<path style=" stroke:none;fill-rule:nonzero;fill:rgb(0%,0%,0%);fill-opacity:1;" d="M 1.5 3.5 C 2.050781 3.5 2.5 3.050781 2.5 2.5 C 2.5 1.949219 2.050781 1.5 1.5 1.5 C 0.949219 1.5 0.5 1.949219 0.5 2.5 C 0.5 3.050781 0.949219 3.5 1.5 3.5 Z M 8.5 3.5 C 9.050781 3.5 9.5 3.050781 9.5 2.5 C 9.5 1.949219 9.050781 1.5 8.5 1.5 C 7.949219 1.5 7.5 1.949219 7.5 2.5 C 7.5 3.050781 7.949219 3.5 8.5 3.5 Z M 9 4 L 8 4 C 7.726562 4 7.476562 4.109375 7.296875 4.289062 C 7.925781 4.636719 8.371094 5.257812 8.46875 6 L 9.5 6 C 9.777344 6 10 5.777344 10 5.5 L 10 5 C 10 4.449219 9.550781 4 9 4 Z M 5 4 C 5.96875 4 6.75 3.21875 6.75 2.25 C 6.75 1.28125 5.96875 0.5 5 0.5 C 4.03125 0.5 3.25 1.28125 3.25 2.25 C 3.25 3.21875 4.03125 4 5 4 Z M 6.199219 4.5 L 6.070312 4.5 C 5.746094 4.65625 5.382812 4.75 5 4.75 C 4.617188 4.75 4.257812 4.65625 3.929688 4.5 L 3.800781 4.5 C 2.804688 4.5 2 5.304688 2 6.300781 L 2 6.75 C 2 7.164062 2.335938 7.5 2.75 7.5 L 7.25 7.5 C 7.664062 7.5 8 7.164062 8 6.75 L 8 6.300781 C 8 5.304688 7.195312 4.5 6.199219 4.5 Z M 2.703125 4.289062 C 2.523438 4.109375 2.273438 4 2 4 L 1 4 C 0.449219 4 0 4.449219 0 5 L 0 5.5 C 0 5.777344 0.222656 6 0.5 6 L 1.53125 6 C 1.628906 5.257812 2.074219 4.636719 2.703125 4.289062 Z M 2.703125 4.289062 "/>
</g>
</svg>
