<?xml version="1.0" encoding="UTF-8"?>
<svg xmlns="http://www.w3.org/2000/svg" xmlns:xlink="http://www.w3.org/1999/xlink" width="10pt" height="13pt" viewBox="0 0 10 13" version="1.1">
<g id="surface1">
<path style=" stroke:none;fill-rule:nonzero;fill:rgb(0%,0%,0%);fill-opacity:1;" d="M 7.5 6.5 L 2.5 6.5 L 2.5 8.125 L 7.5 8.125 Z M 9.816406 2.664062 L 7.269531 0.179688 C 7.152344 0.0625 6.992188 0 6.824219 0 L 6.667969 0 L 6.667969 3.25 L 10 3.25 L 10 3.09375 C 10 2.933594 9.933594 2.78125 9.816406 2.664062 Z M 5.832031 3.453125 L 5.832031 0 L 0.625 0 C 0.277344 0 0 0.273438 0 0.609375 L 0 12.390625 C 0 12.726562 0.277344 13 0.625 13 L 9.375 13 C 9.722656 13 10 12.726562 10 12.390625 L 10 4.0625 L 6.457031 4.0625 C 6.113281 4.0625 5.832031 3.789062 5.832031 3.453125 Z M 1.667969 1.828125 C 1.667969 1.714844 1.761719 1.625 1.875 1.625 L 3.957031 1.625 C 4.074219 1.625 4.167969 1.714844 4.167969 1.828125 L 4.167969 2.234375 C 4.167969 2.347656 4.074219 2.4375 3.957031 2.4375 L 1.875 2.4375 C 1.761719 2.4375 1.667969 2.347656 1.667969 2.234375 Z M 1.667969 3.453125 C 1.667969 3.339844 1.761719 3.25 1.875 3.25 L 3.957031 3.25 C 4.074219 3.25 4.167969 3.339844 4.167969 3.453125 L 4.167969 3.859375 C 4.167969 3.972656 4.074219 4.0625 3.957031 4.0625 L 1.875 4.0625 C 1.761719 4.0625 1.667969 3.972656 1.667969 3.859375 Z M 8.332031 11.171875 C 8.332031 11.285156 8.238281 11.375 8.125 11.375 L 6.042969 11.375 C 5.925781 11.375 5.832031 11.285156 5.832031 11.171875 L 5.832031 10.765625 C 5.832031 10.652344 5.925781 10.5625 6.042969 10.5625 L 8.125 10.5625 C 8.238281 10.5625 8.332031 10.652344 8.332031 10.765625 Z M 8.332031 6.09375 L 8.332031 8.53125 C 8.332031 8.753906 8.148438 8.9375 7.917969 8.9375 L 2.082031 8.9375 C 1.851562 8.9375 1.667969 8.753906 1.667969 8.53125 L 1.667969 6.09375 C 1.667969 5.871094 1.851562 5.6875 2.082031 5.6875 L 7.917969 5.6875 C 8.148438 5.6875 8.332031 5.871094 8.332031 6.09375 Z M 8.332031 6.09375 "/>
</g>
</svg>
