<?xml version="1.0" encoding="UTF-8"?>
<svg xmlns="http://www.w3.org/2000/svg" xmlns:xlink="http://www.w3.org/1999/xlink" width="12pt" height="10pt" viewBox="0 0 12 10" version="1.1">
<g id="surface1">
<path style=" stroke:none;fill-rule:nonzero;fill:rgb(0%,0%,0%);fill-opacity:1;" d="M 3.601562 5 C 4.761719 5 5.699219 4.023438 5.699219 2.8125 C 5.699219 1.601562 4.761719 0.625 3.601562 0.625 C 2.4375 0.625 1.5 1.601562 1.5 2.8125 C 1.5 4.023438 2.4375 5 3.601562 5 Z M 5.039062 5.625 L 4.882812 5.625 C 4.496094 5.820312 4.0625 5.9375 3.601562 5.9375 C 3.140625 5.9375 2.707031 5.820312 2.316406 5.625 L 2.160156 5.625 C 0.96875 5.625 0 6.632812 0 7.875 L 0 8.4375 C 0 8.953125 0.402344 9.375 0.898438 9.375 L 6.300781 9.375 C 6.796875 9.375 7.199219 8.953125 7.199219 8.4375 L 7.199219 7.875 C 7.199219 6.632812 6.234375 5.625 5.039062 5.625 Z M 9 5 C 9.992188 5 10.800781 4.160156 10.800781 3.125 C 10.800781 2.089844 9.992188 1.25 9 1.25 C 8.007812 1.25 7.199219 2.089844 7.199219 3.125 C 7.199219 4.160156 8.007812 5 9 5 Z M 9.898438 5.625 L 9.828125 5.625 C 9.566406 5.71875 9.292969 5.78125 9 5.78125 C 8.707031 5.78125 8.433594 5.71875 8.171875 5.625 L 8.101562 5.625 C 7.71875 5.625 7.363281 5.742188 7.054688 5.925781 C 7.511719 6.4375 7.800781 7.121094 7.800781 7.875 L 7.800781 8.625 C 7.800781 8.667969 7.789062 8.710938 7.789062 8.75 L 11.101562 8.75 C 11.597656 8.75 12 8.328125 12 7.8125 C 12 6.601562 11.0625 5.625 9.898438 5.625 Z M 9.898438 5.625 "/>
</g>
</svg>
