<?xml version="1.0" encoding="UTF-8"?>
<svg xmlns="http://www.w3.org/2000/svg" xmlns:xlink="http://www.w3.org/1999/xlink" width="10pt" height="9pt" viewBox="0 0 10 9" version="1.1">
<g id="surface1">
<path style=" stroke:none;fill-rule:nonzero;fill:rgb(0%,0%,0%);fill-opacity:1;" d="M 9.792969 0 L 8.421875 0 C 8.234375 0 8.140625 0.226562 8.273438 0.359375 L 8.566406 0.65625 L 7.71875 1.511719 C 7.335938 1.265625 6.878906 1.125 6.390625 1.125 C 5.804688 1.125 5.265625 1.328125 4.839844 1.667969 C 5.082031 1.960938 5.273438 2.300781 5.398438 2.671875 C 5.648438 2.410156 6 2.25 6.390625 2.25 C 7.15625 2.25 7.777344 2.882812 7.777344 3.65625 C 7.777344 4.429688 7.15625 5.0625 6.390625 5.0625 C 6 5.0625 5.648438 4.902344 5.398438 4.640625 C 5.273438 5.011719 5.085938 5.351562 4.839844 5.644531 C 5.265625 5.984375 5.804688 6.1875 6.390625 6.1875 C 7.769531 6.1875 8.890625 5.054688 8.890625 3.65625 C 8.890625 3.160156 8.75 2.699219 8.503906 2.308594 L 9.351562 1.453125 L 9.644531 1.75 C 9.6875 1.792969 9.738281 1.8125 9.789062 1.8125 C 9.898438 1.8125 10 1.726562 10 1.601562 L 10 0.210938 C 10 0.09375 9.90625 0 9.792969 0 Z M 2.5 1.125 C 1.121094 1.125 0 2.257812 0 3.65625 C 0 4.859375 0.832031 5.871094 1.945312 6.125 L 1.945312 7.03125 L 1.320312 7.03125 C 1.203125 7.03125 1.109375 7.125 1.109375 7.242188 L 1.109375 7.945312 C 1.109375 8.0625 1.203125 8.15625 1.320312 8.15625 L 1.945312 8.15625 L 1.945312 8.789062 C 1.945312 8.90625 2.039062 9 2.152344 9 L 2.847656 9 C 2.960938 9 3.054688 8.90625 3.054688 8.789062 L 3.054688 8.15625 L 3.679688 8.15625 C 3.796875 8.15625 3.890625 8.0625 3.890625 7.945312 L 3.890625 7.242188 C 3.890625 7.125 3.796875 7.03125 3.679688 7.03125 L 3.054688 7.03125 L 3.054688 6.125 C 4.167969 5.867188 5 4.859375 5 3.65625 C 5 2.257812 3.878906 1.125 2.5 1.125 Z M 2.5 5.0625 C 1.734375 5.0625 1.109375 4.429688 1.109375 3.65625 C 1.109375 2.882812 1.734375 2.25 2.5 2.25 C 3.265625 2.25 3.890625 2.882812 3.890625 3.65625 C 3.890625 4.429688 3.265625 5.0625 2.5 5.0625 Z M 2.5 5.0625 "/>
</g>
</svg>
