<?xml version="1.0" encoding="UTF-8"?>
<svg xmlns="http://www.w3.org/2000/svg" xmlns:xlink="http://www.w3.org/1999/xlink" width="10pt" height="9pt" viewBox="0 0 10 9" version="1.1">
<g id="surface1">
<path style=" stroke:none;fill-rule:nonzero;fill:rgb(0%,0%,0%);fill-opacity:1;" d="M 9.167969 0.5625 L 0.832031 0.5625 C 0.375 0.5625 0 0.941406 0 1.40625 L 0 1.6875 L 10 1.6875 L 10 1.40625 C 10 0.941406 9.625 0.5625 9.167969 0.5625 Z M 0 7.59375 C 0 8.058594 0.375 8.4375 0.832031 8.4375 L 9.167969 8.4375 C 9.625 8.4375 10 8.058594 10 7.59375 L 10 2.25 L 0 2.25 Z M 6.109375 3.515625 C 6.109375 3.4375 6.171875 3.375 6.25 3.375 L 8.75 3.375 C 8.828125 3.375 8.890625 3.4375 8.890625 3.515625 L 8.890625 3.796875 C 8.890625 3.875 8.828125 3.9375 8.75 3.9375 L 6.25 3.9375 C 6.171875 3.9375 6.109375 3.875 6.109375 3.796875 Z M 6.109375 4.640625 C 6.109375 4.5625 6.171875 4.5 6.25 4.5 L 8.75 4.5 C 8.828125 4.5 8.890625 4.5625 8.890625 4.640625 L 8.890625 4.921875 C 8.890625 5 8.828125 5.0625 8.75 5.0625 L 6.25 5.0625 C 6.171875 5.0625 6.109375 5 6.109375 4.921875 Z M 6.109375 5.765625 C 6.109375 5.6875 6.171875 5.625 6.25 5.625 L 8.75 5.625 C 8.828125 5.625 8.890625 5.6875 8.890625 5.765625 L 8.890625 6.046875 C 8.890625 6.125 8.828125 6.1875 8.75 6.1875 L 6.25 6.1875 C 6.171875 6.1875 6.109375 6.125 6.109375 6.046875 Z M 3.054688 3.375 C 3.667969 3.375 4.167969 3.878906 4.167969 4.5 C 4.167969 5.121094 3.667969 5.625 3.054688 5.625 C 2.441406 5.625 1.945312 5.121094 1.945312 4.5 C 1.945312 3.878906 2.441406 3.375 3.054688 3.375 Z M 1.164062 6.964844 C 1.3125 6.511719 1.730469 6.1875 2.222656 6.1875 L 2.363281 6.1875 C 2.578125 6.277344 2.8125 6.328125 3.054688 6.328125 C 3.300781 6.328125 3.535156 6.277344 3.746094 6.1875 L 3.890625 6.1875 C 4.382812 6.1875 4.800781 6.511719 4.945312 6.964844 C 5 7.136719 4.855469 7.3125 4.675781 7.3125 L 1.4375 7.3125 C 1.253906 7.3125 1.109375 7.136719 1.164062 6.964844 Z M 1.164062 6.964844 "/>
</g>
</svg>
