<?xml version="1.0" encoding="UTF-8"?>
<svg xmlns="http://www.w3.org/2000/svg" xmlns:xlink="http://www.w3.org/1999/xlink" width="10pt" height="11pt" viewBox="0 0 10 11" version="1.1">
<g id="surface1">
<path style=" stroke:none;fill-rule:nonzero;fill:rgb(0%,0%,0%);fill-opacity:1;" d="M 5.003906 3.03125 C 3.582031 3.03125 2.4375 4.132812 2.4375 5.496094 C 2.4375 6.863281 3.582031 7.964844 5.003906 7.964844 C 6.421875 7.964844 7.566406 6.863281 7.566406 5.496094 C 7.566406 4.132812 6.421875 3.03125 5.003906 3.03125 Z M 5.003906 7.101562 C 4.085938 7.101562 3.335938 6.382812 3.335938 5.496094 C 3.335938 4.613281 4.082031 3.894531 5.003906 3.894531 C 5.921875 3.894531 6.667969 4.613281 6.667969 5.496094 C 6.667969 6.382812 5.917969 7.101562 5.003906 7.101562 Z M 8.269531 2.929688 C 8.269531 3.25 8.003906 3.503906 7.671875 3.503906 C 7.339844 3.503906 7.074219 3.246094 7.074219 2.929688 C 7.074219 2.609375 7.339844 2.351562 7.671875 2.351562 C 8.003906 2.351562 8.269531 2.609375 8.269531 2.929688 Z M 9.96875 3.511719 C 9.929688 2.742188 9.746094 2.058594 9.160156 1.496094 C 8.574219 0.933594 7.867188 0.757812 7.066406 0.71875 C 6.238281 0.671875 3.761719 0.671875 2.9375 0.71875 C 2.136719 0.753906 1.429688 0.929688 0.839844 1.492188 C 0.253906 2.054688 0.0742188 2.738281 0.0351562 3.511719 C -0.0117188 4.304688 -0.0117188 6.6875 0.0351562 7.484375 C 0.0703125 8.253906 0.253906 8.9375 0.839844 9.5 C 1.429688 10.0625 2.136719 10.238281 2.9375 10.277344 C 3.761719 10.324219 6.238281 10.324219 7.066406 10.277344 C 7.867188 10.242188 8.574219 10.066406 9.160156 9.5 C 9.746094 8.9375 9.929688 8.253906 9.96875 7.484375 C 10.015625 6.6875 10.015625 4.308594 9.96875 3.511719 Z M 8.902344 8.335938 C 8.726562 8.757812 8.390625 9.082031 7.949219 9.25 C 7.292969 9.503906 5.730469 9.445312 5.003906 9.445312 C 4.273438 9.445312 2.710938 9.5 2.054688 9.25 C 1.617188 9.082031 1.277344 8.757812 1.101562 8.335938 C 0.839844 7.703125 0.902344 6.199219 0.902344 5.496094 C 0.902344 4.796875 0.84375 3.292969 1.101562 2.660156 C 1.277344 2.238281 1.613281 1.914062 2.054688 1.746094 C 2.710938 1.492188 4.273438 1.550781 5.003906 1.550781 C 5.730469 1.550781 7.292969 1.496094 7.949219 1.746094 C 8.386719 1.914062 8.726562 2.238281 8.902344 2.660156 C 9.164062 3.292969 9.101562 4.796875 9.101562 5.496094 C 9.101562 6.199219 9.164062 7.703125 8.902344 8.335938 Z M 8.902344 8.335938 "/>
</g>
</svg>
