<?xml version="1.0" encoding="UTF-8"?>
<svg xmlns="http://www.w3.org/2000/svg" xmlns:xlink="http://www.w3.org/1999/xlink" width="10pt" height="11pt" viewBox="0 0 10 11" version="1.1">
<g id="surface1">
<path style=" stroke:none;fill-rule:nonzero;fill:rgb(0%,0%,0%);fill-opacity:1;" d="M 9.285156 0.6875 L 0.710938 0.6875 C 0.320312 0.6875 0 1 0 1.382812 L 0 9.617188 C 0 10 0.320312 10.3125 0.710938 10.3125 L 9.285156 10.3125 C 9.679688 10.3125 10 10 10 9.617188 L 10 1.382812 C 10 1 9.679688 0.6875 9.285156 0.6875 Z M 3.023438 8.9375 L 1.539062 8.9375 L 1.539062 4.34375 L 3.023438 4.34375 Z M 2.28125 3.71875 C 1.804688 3.71875 1.421875 3.34375 1.421875 2.890625 C 1.421875 2.433594 1.804688 2.0625 2.28125 2.0625 C 2.753906 2.0625 3.140625 2.433594 3.140625 2.890625 C 3.140625 3.347656 2.757812 3.71875 2.28125 3.71875 Z M 8.578125 8.9375 L 7.097656 8.9375 L 7.097656 6.703125 C 7.097656 6.171875 7.085938 5.484375 6.324219 5.484375 C 5.554688 5.484375 5.433594 6.066406 5.433594 6.664062 L 5.433594 8.9375 L 3.953125 8.9375 L 3.953125 4.34375 L 5.375 4.34375 L 5.375 4.972656 L 5.394531 4.972656 C 5.59375 4.609375 6.078125 4.230469 6.800781 4.230469 C 8.300781 4.230469 8.578125 5.183594 8.578125 6.417969 Z M 8.578125 8.9375 "/>
</g>
</svg>
