<?xml version="1.0" encoding="UTF-8"?>
<svg xmlns="http://www.w3.org/2000/svg" xmlns:xlink="http://www.w3.org/1999/xlink" width="10pt" height="11pt" viewBox="0 0 10 11" version="1.1">
<g id="surface1">
<path style=" stroke:none;fill-rule:nonzero;fill:rgb(0%,0%,0%);fill-opacity:1;" d="M 9.730469 10.3125 L 9.285156 10.3125 L 9.285156 0.515625 C 9.285156 0.230469 9.046875 0 8.75 0 L 1.25 0 C 0.953125 0 0.714844 0.230469 0.714844 0.515625 L 0.714844 10.3125 L 0.269531 10.3125 C 0.121094 10.3125 0 10.429688 0 10.570312 L 0 11 L 10 11 L 10 10.570312 C 10 10.429688 9.878906 10.3125 9.730469 10.3125 Z M 2.855469 1.632812 C 2.855469 1.492188 2.976562 1.375 3.125 1.375 L 4.019531 1.375 C 4.164062 1.375 4.285156 1.492188 4.285156 1.632812 L 4.285156 2.492188 C 4.285156 2.632812 4.164062 2.75 4.019531 2.75 L 3.125 2.75 C 2.976562 2.75 2.855469 2.632812 2.855469 2.492188 Z M 2.855469 3.695312 C 2.855469 3.554688 2.976562 3.4375 3.125 3.4375 L 4.019531 3.4375 C 4.164062 3.4375 4.285156 3.554688 4.285156 3.695312 L 4.285156 4.554688 C 4.285156 4.695312 4.164062 4.8125 4.019531 4.8125 L 3.125 4.8125 C 2.976562 4.8125 2.855469 4.695312 2.855469 4.554688 Z M 4.019531 6.875 L 3.125 6.875 C 2.976562 6.875 2.855469 6.757812 2.855469 6.617188 L 2.855469 5.757812 C 2.855469 5.617188 2.976562 5.5 3.125 5.5 L 4.019531 5.5 C 4.164062 5.5 4.285156 5.617188 4.285156 5.757812 L 4.285156 6.617188 C 4.285156 6.757812 4.164062 6.875 4.019531 6.875 Z M 5.714844 10.3125 L 4.285156 10.3125 L 4.285156 8.507812 C 4.285156 8.367188 4.40625 8.25 4.554688 8.25 L 5.445312 8.25 C 5.59375 8.25 5.714844 8.367188 5.714844 8.507812 Z M 7.144531 6.617188 C 7.144531 6.757812 7.023438 6.875 6.875 6.875 L 5.980469 6.875 C 5.835938 6.875 5.714844 6.757812 5.714844 6.617188 L 5.714844 5.757812 C 5.714844 5.617188 5.835938 5.5 5.980469 5.5 L 6.875 5.5 C 7.023438 5.5 7.144531 5.617188 7.144531 5.757812 Z M 7.144531 4.554688 C 7.144531 4.695312 7.023438 4.8125 6.875 4.8125 L 5.980469 4.8125 C 5.835938 4.8125 5.714844 4.695312 5.714844 4.554688 L 5.714844 3.695312 C 5.714844 3.554688 5.835938 3.4375 5.980469 3.4375 L 6.875 3.4375 C 7.023438 3.4375 7.144531 3.554688 7.144531 3.695312 Z M 7.144531 2.492188 C 7.144531 2.632812 7.023438 2.75 6.875 2.75 L 5.980469 2.75 C 5.835938 2.75 5.714844 2.632812 5.714844 2.492188 L 5.714844 1.632812 C 5.714844 1.492188 5.835938 1.375 5.980469 1.375 L 6.875 1.375 C 7.023438 1.375 7.144531 1.492188 7.144531 1.632812 Z M 7.144531 2.492188 "/>
</g>
</svg>
