<?xml version="1.0" encoding="UTF-8"?>
<svg xmlns="http://www.w3.org/2000/svg" xmlns:xlink="http://www.w3.org/1999/xlink" width="10pt" height="10pt" viewBox="0 0 10 10" version="1.1">
<g id="surface1">
<path style=" stroke:none;fill-rule:nonzero;fill:rgb(0%,0%,0%);fill-opacity:1;" d="M 9.636719 0.480469 L 7.605469 0.0117188 C 7.382812 -0.0390625 7.15625 0.078125 7.070312 0.285156 L 6.132812 2.46875 C 6.046875 2.664062 6.101562 2.886719 6.265625 3.015625 L 7.449219 3.984375 C 6.746094 5.484375 5.515625 6.730469 3.988281 7.445312 L 3.019531 6.261719 C 2.886719 6.101562 2.664062 6.046875 2.472656 6.128906 L 0.285156 7.066406 C 0.078125 7.15625 -0.0390625 7.382812 0.0117188 7.605469 L 0.480469 9.636719 C 0.53125 9.847656 0.71875 10 0.9375 10 C 5.9375 10 10 5.945312 10 0.9375 C 10 0.71875 9.851562 0.53125 9.636719 0.480469 Z M 9.636719 0.480469 "/>
</g>
</svg>
