<?xml version="1.0" encoding="UTF-8"?>
<svg xmlns="http://www.w3.org/2000/svg" xmlns:xlink="http://www.w3.org/1999/xlink" width="15pt" height="15pt" viewBox="0 0 15 15" version="1.1">
<g id="surface1">
<path style=" stroke:none;fill-rule:nonzero;fill:rgb(0%,0%,0%);fill-opacity:1;" d="M 7.5 0.234375 C 3.484375 0.234375 0.234375 3.484375 0.234375 7.5 C 0.234375 11.515625 3.484375 14.765625 7.5 14.765625 C 11.515625 14.765625 14.765625 11.515625 14.765625 7.5 C 14.765625 3.484375 11.515625 0.234375 7.5 0.234375 Z M 11.71875 8.320312 C 11.71875 8.515625 11.5625 8.671875 11.367188 8.671875 L 8.671875 8.671875 L 8.671875 11.367188 C 8.671875 11.5625 8.515625 11.71875 8.320312 11.71875 L 6.679688 11.71875 C 6.484375 11.71875 6.328125 11.5625 6.328125 11.367188 L 6.328125 8.671875 L 3.632812 8.671875 C 3.4375 8.671875 3.28125 8.515625 3.28125 8.320312 L 3.28125 6.679688 C 3.28125 6.484375 3.4375 6.328125 3.632812 6.328125 L 6.328125 6.328125 L 6.328125 3.632812 C 6.328125 3.4375 6.484375 3.28125 6.679688 3.28125 L 8.320312 3.28125 C 8.515625 3.28125 8.671875 3.4375 8.671875 3.632812 L 8.671875 6.328125 L 11.367188 6.328125 C 11.5625 6.328125 11.71875 6.484375 11.71875 6.679688 Z M 11.71875 8.320312 "/>
</g>
</svg>
