<?xml version="1.0" encoding="UTF-8"?>
<svg xmlns="http://www.w3.org/2000/svg" xmlns:xlink="http://www.w3.org/1999/xlink" width="10pt" height="13pt" viewBox="0 0 10 13" version="1.1">
<g id="surface1">
<path style=" stroke:none;fill-rule:nonzero;fill:rgb(0%,0%,0%);fill-opacity:1;" d="M 6.667969 3.25 C 7.585938 3.25 8.332031 2.523438 8.332031 1.625 C 8.332031 0.726562 7.585938 0 6.667969 0 C 5.746094 0 5 0.726562 5 1.625 C 5 2.523438 5.746094 3.25 6.667969 3.25 Z M 5.867188 7.558594 C 6.234375 7.984375 6.882812 8.042969 7.328125 7.691406 L 9.617188 5.863281 C 10.0625 5.507812 10.128906 4.867188 9.765625 4.433594 C 9.402344 4 8.742188 3.9375 8.296875 4.292969 L 6.800781 5.484375 L 5.789062 4.308594 C 5.386719 3.84375 4.769531 3.601562 4.121094 3.667969 C 3.492188 3.730469 2.945312 4.078125 2.65625 4.605469 L 1.367188 6.941406 C 0.757812 8.046875 1.140625 9.386719 2.257812 10.082031 L 3.425781 10.96875 L 1.042969 10.96875 C 0.464844 10.96875 0 11.421875 0 11.984375 C 0 12.546875 0.464844 13 1.042969 13 L 6.457031 13 C 7.347656 13 7.859375 11.914062 7.195312 11.265625 L 4.332031 8.476562 L 5.238281 6.828125 Z M 5.867188 7.558594 "/>
</g>
</svg>
