<?xml version="1.0" encoding="UTF-8"?>
<svg xmlns="http://www.w3.org/2000/svg" xmlns:xlink="http://www.w3.org/1999/xlink" width="10pt" height="8pt" viewBox="0 0 10 8" version="1.1">
<g id="surface1">
<path style=" stroke:none;fill-rule:nonzero;fill:rgb(0%,0%,0%);fill-opacity:1;" d="M 9.5 0.5 L 0.5 0.5 C 0.222656 0.5 0 0.722656 0 1 L 0 7 C 0 7.277344 0.222656 7.5 0.5 7.5 L 9.5 7.5 C 9.777344 7.5 10 7.277344 10 7 L 10 1 C 10 0.722656 9.777344 0.5 9.5 0.5 Z M 2.75 5.125 L 2.75 5.375 C 2.75 5.445312 2.695312 5.5 2.625 5.5 L 2.375 5.5 C 2.304688 5.5 2.25 5.445312 2.25 5.375 L 2.25 5.121094 C 2.074219 5.113281 1.902344 5.050781 1.761719 4.941406 C 1.699219 4.898438 1.695312 4.804688 1.75 4.753906 L 1.933594 4.578125 C 1.976562 4.535156 2.042969 4.535156 2.09375 4.566406 C 2.152344 4.605469 2.222656 4.625 2.292969 4.625 L 2.730469 4.625 C 2.832031 4.625 2.917969 4.53125 2.917969 4.417969 C 2.917969 4.324219 2.859375 4.242188 2.78125 4.21875 L 2.078125 4.007812 C 1.785156 3.921875 1.582031 3.644531 1.582031 3.332031 C 1.582031 2.949219 1.878906 2.636719 2.25 2.625 L 2.25 2.375 C 2.25 2.304688 2.304688 2.25 2.375 2.25 L 2.625 2.25 C 2.695312 2.25 2.75 2.304688 2.75 2.375 L 2.75 2.628906 C 2.925781 2.636719 3.097656 2.699219 3.238281 2.808594 C 3.300781 2.851562 3.304688 2.945312 3.25 2.996094 L 3.066406 3.171875 C 3.023438 3.214844 2.957031 3.214844 2.90625 3.183594 C 2.847656 3.144531 2.777344 3.125 2.707031 3.125 L 2.265625 3.125 C 2.164062 3.125 2.082031 3.21875 2.082031 3.332031 C 2.082031 3.425781 2.140625 3.507812 2.21875 3.53125 L 2.921875 3.742188 C 3.214844 3.828125 3.417969 4.105469 3.417969 4.417969 C 3.417969 4.800781 3.117188 5.113281 2.75 5.125 Z M 6.5 4.875 C 6.5 4.945312 6.445312 5 6.375 5 L 4.625 5 C 4.554688 5 4.5 4.945312 4.5 4.875 L 4.5 4.625 C 4.5 4.554688 4.554688 4.5 4.625 4.5 L 6.375 4.5 C 6.445312 4.5 6.5 4.554688 6.5 4.625 Z M 9 4.875 C 9 4.945312 8.945312 5 8.875 5 L 7.625 5 C 7.554688 5 7.5 4.945312 7.5 4.875 L 7.5 4.625 C 7.5 4.554688 7.554688 4.5 7.625 4.5 L 8.875 4.5 C 8.945312 4.5 9 4.554688 9 4.625 Z M 9 3.375 C 9 3.445312 8.945312 3.5 8.875 3.5 L 4.625 3.5 C 4.554688 3.5 4.5 3.445312 4.5 3.375 L 4.5 3.125 C 4.5 3.054688 4.554688 3 4.625 3 L 8.875 3 C 8.945312 3 9 3.054688 9 3.125 Z M 9 3.375 "/>
</g>
</svg>
