<?xml version="1.0" encoding="UTF-8"?>
<svg xmlns="http://www.w3.org/2000/svg" xmlns:xlink="http://www.w3.org/1999/xlink" width="10pt" height="11pt" viewBox="0 0 10 11" version="1.1">
<g id="surface1">
<path style=" stroke:none;fill-rule:nonzero;fill:rgb(0%,0%,0%);fill-opacity:1;" d="M 8.503906 2.085938 C 7.566406 1.183594 6.320312 0.6875 4.996094 0.6875 C 2.265625 0.6875 0.0429688 2.828125 0.0429688 5.457031 C 0.0429688 6.296875 0.269531 7.117188 0.703125 7.84375 L 0 10.3125 L 2.628906 9.648438 C 3.351562 10.027344 4.164062 10.230469 4.996094 10.230469 C 7.726562 10.230469 10 8.089844 10 5.460938 C 10 4.183594 9.4375 2.988281 8.503906 2.085938 Z M 4.996094 9.425781 C 4.257812 9.425781 3.53125 9.234375 2.898438 8.875 L 2.75 8.789062 L 1.191406 9.179688 L 1.605469 7.71875 L 1.507812 7.566406 C 1.097656 6.933594 0.878906 6.207031 0.878906 5.457031 C 0.878906 3.273438 2.726562 1.492188 5 1.492188 C 6.101562 1.492188 7.132812 1.90625 7.910156 2.65625 C 8.6875 3.40625 9.164062 4.398438 9.164062 5.460938 C 9.164062 7.644531 7.269531 9.425781 4.996094 9.425781 Z M 7.257812 6.457031 C 7.132812 6.394531 6.523438 6.109375 6.410156 6.070312 C 6.296875 6.027344 6.214844 6.007812 6.132812 6.128906 C 6.050781 6.25 5.8125 6.515625 5.738281 6.597656 C 5.667969 6.675781 5.59375 6.6875 5.472656 6.628906 C 4.742188 6.277344 4.265625 6.003906 3.785156 5.210938 C 3.660156 5 3.914062 5.015625 4.148438 4.558594 C 4.191406 4.480469 4.167969 4.410156 4.136719 4.351562 C 4.105469 4.289062 3.859375 3.703125 3.757812 3.464844 C 3.65625 3.234375 3.554688 3.265625 3.476562 3.261719 C 3.40625 3.257812 3.324219 3.257812 3.242188 3.257812 C 3.160156 3.257812 3.023438 3.289062 2.910156 3.40625 C 2.796875 3.527344 2.476562 3.8125 2.476562 4.398438 C 2.476562 4.988281 2.921875 5.554688 2.980469 5.632812 C 3.042969 5.710938 3.855469 6.914062 5.097656 7.433594 C 5.882812 7.761719 6.191406 7.789062 6.585938 7.730469 C 6.824219 7.699219 7.316406 7.445312 7.417969 7.164062 C 7.523438 6.886719 7.523438 6.648438 7.492188 6.597656 C 7.460938 6.542969 7.378906 6.515625 7.257812 6.457031 Z M 7.257812 6.457031 "/>
</g>
</svg>
