<?xml version="1.0" encoding="UTF-8"?>
<svg xmlns="http://www.w3.org/2000/svg" xmlns:xlink="http://www.w3.org/1999/xlink" width="10pt" height="10pt" viewBox="0 0 10 10" version="1.1">
<g id="surface1">
<path style=" stroke:none;fill-rule:nonzero;fill:rgb(0%,0%,0%);fill-opacity:1;" d="M 6.25 6.5625 C 6.25 6.734375 6.109375 6.875 5.9375 6.875 L 4.0625 6.875 C 3.890625 6.875 3.75 6.734375 3.75 6.5625 L 3.75 5.625 L 0 5.625 L 0 8.4375 C 0 8.9375 0.4375 9.375 0.9375 9.375 L 9.0625 9.375 C 9.5625 9.375 10 8.9375 10 8.4375 L 10 5.625 L 6.25 5.625 Z M 9.0625 2.5 L 7.5 2.5 L 7.5 1.5625 C 7.5 1.0625 7.0625 0.625 6.5625 0.625 L 3.4375 0.625 C 2.9375 0.625 2.5 1.0625 2.5 1.5625 L 2.5 2.5 L 0.9375 2.5 C 0.4375 2.5 0 2.9375 0 3.4375 L 0 5 L 10 5 L 10 3.4375 C 10 2.9375 9.5625 2.5 9.0625 2.5 Z M 6.25 2.5 L 3.75 2.5 L 3.75 1.875 L 6.25 1.875 Z M 6.25 2.5 "/>
</g>
</svg>
